<?xml version="1.0" standalone="no"?>
<!DOCTYPE svg PUBLIC "-//W3C//DTD SVG 20010904//EN"
 "http://www.w3.org/TR/2001/REC-SVG-20010904/DTD/svg10.dtd">
<svg version="1.0" xmlns="http://www.w3.org/2000/svg"
 width="1823.000000pt" height="1823.000000pt" viewBox="0 0 1823.000000 1823.000000"
 preserveAspectRatio="xMidYMid meet">
<metadata>
Created by potrace 1.11, written by Peter Selinger 2001-2013
</metadata>
<g transform="translate(0.000000,1823.000000) scale(0.100000,-0.100000)"
fill="#000000" stroke="none">
<path d="M1540 17563 c-430 -67 -741 -344 -853 -758 -21 -79 -21 -91 -24
-1145 l-4 -1065 123 -29 c142 -32 466 -137 585 -190 68 -30 93 -36 152 -36
l71 0 0 220 0 219 -82 3 c-66 2 -83 6 -83 18 0 12 17 16 83 18 l82 3 0 229 0
229 -82 3 c-66 2 -83 6 -83 18 0 12 17 16 83 18 l82 3 0 229 0 229 -82 3 c-66
2 -83 6 -83 18 0 12 17 16 83 18 l82 3 0 229 0 229 -82 3 c-66 2 -83 6 -83 18
0 12 17 16 83 18 l82 3 0 219 0 220 -166 2 c-146 3 -168 5 -178 21 -8 12 -8
22 0 35 10 16 38 17 354 17 316 0 344 -1 354 -17 8 -13 8 -23 0 -35 -10 -16
-32 -18 -178 -21 l-166 -2 0 -220 0 -219 83 -3 c65 -2 82 -6 82 -18 0 -12 -17
-16 -82 -18 l-83 -3 0 -229 0 -229 83 -3 c65 -2 82 -6 82 -18 0 -12 -17 -16
-82 -18 l-83 -3 0 -229 0 -229 83 -3 c65 -2 82 -6 82 -18 0 -12 -17 -16 -82
-18 l-83 -3 0 -229 0 -229 83 -3 c65 -2 82 -6 82 -18 0 -12 -17 -16 -82 -18
l-83 -3 0 -219 0 -220 166 -2 c146 -3 168 -5 178 -20 8 -13 8 -23 0 -35 -10
-16 -31 -18 -170 -21 l-159 -3 135 -75 c1063 -600 1955 -1704 2841 -3519 506
-1037 900 -2001 1849 -4525 133 -355 245 -648 249 -652 4 -4 105 32 226 81
731 295 1359 456 2065 528 161 17 306 18 1760 18 1225 0 1618 -3 1730 -13
1459 -132 2889 -732 4840 -2032 129 -86 241 -160 248 -164 10 -6 12 1263 10
6406 l-3 6413 -26 96 c-50 179 -135 325 -264 454 -152 153 -325 242 -540 280
-78 13 -918 15 -7634 14 -4150 -1 -7557 -3 -7571 -6z m9626 -2426 c-174 -111
-366 -289 -497 -462 -254 -336 -530 -796 -771 -1285 -652 -1327 -880 -1748
-1233 -2280 -273 -411 -464 -593 -659 -629 -67 -12 -1863 -15 -1930 -3 l-39 7
54 36 c140 93 275 235 469 494 278 370 670 996 1110 1770 744 1308 1140 1925
1420 2206 58 59 121 115 140 125 32 18 70 19 480 24 910 11 1476 10 1456 -3z
m4719 -49 c2 -2 -44 -40 -103 -85 -319 -242 -614 -577 -939 -1063 -138 -208
-253 -404 -453 -775 -713 -1327 -1073 -1939 -1386 -2358 -142 -191 -229 -281
-300 -314 l-51 -23 -998 2 -998 3 84 65 c164 125 314 285 487 517 284 382 529
777 813 1309 356 668 600 1100 847 1494 481 769 844 1192 1054 1228 40 7 1936
7 1943 0z m-4413 -92 c29 -35 105 -195 138 -291 111 -319 202 -875 259 -1590
38 -468 44 -600 31 -642 -23 -71 -188 -397 -272 -538 -117 -196 -321 -497
-484 -715 -147 -197 -372 -439 -494 -531 -73 -56 -207 -124 -261 -134 -32 -6
-39 -3 -67 29 -119 135 -210 486 -276 1056 -36 304 -126 1252 -126 1319 0 48
10 77 72 211 487 1051 1003 1746 1368 1844 63 17 88 13 112 -18z m4626 -107
c35 -69 98 -254 131 -384 31 -122 97 -489 131 -727 36 -259 117 -1029 165
-1578 50 -571 70 -715 140 -1026 40 -178 77 -285 146 -430 43 -88 64 -119 128
-184 l76 -78 -170 -6 c-291 -10 -1647 -7 -1706 4 -199 38 -335 287 -433 795
-48 251 -87 604 -125 1140 -11 154 -26 355 -32 447 -12 163 -12 167 10 230 37
103 239 450 424 728 346 522 706 918 998 1099 35 22 69 39 74 37 6 -1 25 -31
43 -67z"/>
<path d="M660 7993 c0 -3721 4 -6454 9 -6462 9 -14 195 118 603 426 l136 103
58 148 c122 315 168 433 231 592 36 91 103 262 149 380 112 285 156 391 160
387 5 -5 -134 -394 -281 -787 -65 -173 -144 -385 -175 -470 -32 -85 -61 -164
-66 -174 -8 -22 -6 -21 64 26 29 20 42 36 42 53 0 13 3 32 7 42 6 14 9 11 13
-15 l5 -33 45 33 45 33 -48 3 c-39 3 -47 6 -43 18 3 9 6 18 6 20 0 2 32 4 71
4 l72 0 151 112 c1500 1110 2288 1657 3146 2181 494 302 871 508 1327 725
l171 81 -58 153 c-32 84 -178 473 -325 863 -479 1273 -821 2149 -1085 2775
-859 2039 -1594 3274 -2446 4110 -482 473 -944 775 -1499 980 -113 42 -351
113 -452 135 l-33 7 0 -6449z m1361 -4400 c-12 -20 -14 -14 -5 12 4 9 9 14 11
11 3 -2 0 -13 -6 -23z m-415 -4 c1 -5 2 -67 3 -139 l1 -129 78 -3 c60 -2 77
-6 77 -18 0 -12 -17 -16 -77 -18 l-78 -3 0 -232 c0 -128 -3 -241 -6 -252 -5
-18 -11 -20 -87 -15 -64 4 -82 8 -82 20 0 12 17 16 78 18 l77 3 0 229 0 229
-77 3 c-61 2 -78 6 -78 18 0 12 17 16 78 18 l77 3 1 137 c1 75 0 142 -1 147
-1 6 2 6 7 2 4 -5 9 -13 9 -18z"/>
<path d="M11680 5959 c-940 -59 -1887 -339 -2960 -875 -765 -382 -1529 -854
-2634 -1624 -463 -323 -754 -535 -1906 -1388 l-665 -492 3 -85 3 -85 229 0
229 0 3 83 c2 65 6 82 18 82 12 0 16 -17 18 -83 l3 -82 219 0 220 0 2 166 c3
146 5 168 20 178 13 8 23 8 35 0 16 -10 18 -32 21 -178 l2 -166 220 0 219 0 3
83 c2 65 6 82 18 82 12 0 16 -17 18 -82 l3 -83 229 0 229 0 3 82 c2 66 6 83
18 83 12 0 16 -17 18 -82 l3 -83 229 0 229 0 3 82 c2 66 6 83 18 83 12 0 16
-17 18 -82 l3 -83 229 0 229 0 3 82 c2 66 6 83 18 83 12 0 16 -17 18 -83 l3
-82 74 0 c41 0 77 -4 80 -10 4 -6 -23 -10 -74 -10 l-80 0 -3 -83 c-2 -65 -6
-82 -18 -82 -12 0 -16 17 -18 82 l-3 83 -229 0 -229 0 -3 -83 c-2 -65 -6 -82
-18 -82 -12 0 -16 17 -18 82 l-3 83 -229 0 -229 0 -3 -82 c-2 -66 -6 -83 -18
-83 -12 0 -16 17 -18 83 l-3 82 -229 0 -229 0 -3 -82 c-2 -66 -6 -83 -18 -83
-12 0 -16 17 -18 83 l-3 82 -219 0 -220 0 -2 -166 c-3 -146 -5 -168 -21 -178
-12 -8 -22 -8 -35 0 -15 10 -17 32 -20 178 l-2 166 -220 0 -219 0 -3 -83 c-2
-65 -6 -82 -18 -82 -12 0 -16 17 -18 82 l-3 83 -229 0 -229 0 -3 -83 c-2 -65
-6 -82 -18 -82 -12 0 -16 17 -18 82 l-3 83 -112 0 -112 0 -185 -136 c-102 -74
-330 -240 -508 -367 l-324 -232 3148 -3 c1731 -1 3149 -1 3151 1 2 2 -44 105
-101 228 -115 250 -122 269 -106 269 6 0 9 -4 6 -8 -2 -4 8 -7 22 -6 15 0 30
-3 33 -8 3 -5 9 -3 12 6 4 9 1 15 -5 13 -6 -1 -12 3 -14 8 -2 6 13 10 36 10
l39 0 122 -257 122 -258 202 0 201 0 154 251 c136 220 170 272 170 256 0 -7
-75 -149 -165 -312 -45 -82 -87 -160 -94 -172 l-12 -23 1318 0 1318 1 75 101
c136 186 312 408 322 408 9 0 -51 -92 -64 -98 -5 -2 -8 -8 -8 -13 0 -5 -26
-45 -57 -89 -59 -81 -194 -275 -207 -297 -6 -10 320 -13 1616 -13 l1623 0 251
218 c138 119 266 228 285 242 18 14 43 34 54 45 12 11 30 26 41 34 35 26 -129
-134 -281 -274 -82 -76 -180 -167 -218 -202 l-67 -63 754 0 c834 0 850 1 1017
64 141 53 240 118 354 231 113 114 178 213 231 354 65 174 64 150 62 1341 l-3
1075 -145 99 c-1627 1105 -2887 1723 -4080 2000 -540 125 -1150 178 -1670 145z
m2858 -4812 c2 -67 -10 -97 -38 -97 -27 0 -40 30 -40 89 0 52 6 61 29 39 10
-11 11 -10 5 5 -5 13 -2 16 12 10 10 -4 15 -2 11 4 -3 5 0 10 6 10 9 0 14 -20
15 -60z m2502 -9 c0 -58 -13 -88 -40 -88 -27 0 -40 30 -40 95 0 51 2 56 19 50
11 -3 22 -1 26 5 15 24 35 -12 35 -62z m-5052 50 c8 -8 15 -8 25 1 12 9 16 8
21 -5 12 -31 5 -60 -24 -94 -25 -29 -31 -33 -40 -20 -11 16 -11 130 0 130 3 0
11 -5 18 -12z m-3626 -30 c-7 -7 -12 -8 -12 -2 0 14 12 26 19 19 2 -3 -1 -11
-7 -17z m1168 -88 c-10 -19 -40 -27 -52 -14 -4 3 8 30 25 59 l32 54 3 -39 c2
-22 -2 -48 -8 -60z"/>
<path d="M3382 1483 l-94 -68 92 -3 c51 -1 94 -1 97 1 2 3 3 34 1 71 l-3 66
-93 -67z"/>
<path d="M8428 1123 c7 -3 16 -2 19 1 4 3 -2 6 -13 5 -11 0 -14 -3 -6 -6z"/>
</g>
</svg>
